# xmcd
#
# Track frame offsets: 
#        150
#        16385
#        16987
#        42092
#        63090
#        64432
#        83612
#        103280
#        119497
#        145510
#        166057
#        167505
#        181512
#        196220
#
# Disc length: 2865 seconds
#
# Revision: 0
# Processed by: cddbd v1.5.2PL0 Copyright (c) Steve Scherf et al.
# Submitted via: ExactAudioCopy v0.99pb4
#
DISCID=a90b2f0e
DTITLE=Hoodoo Man and The Healers - Try To Look At The Big Picture
DYEAR=1995
DGENRE=Blues
TTITLE0=I am what I am
TTITLE1=Intro
TTITLE2=When The Night Comes Down
TTITLE3=Lies
TTITLE4=Intro
TTITLE5=Little Trick
TTITLE6=Hoodoo Man Groove
TTITLE7=We Split
TTITLE8=I Can Only Wait
TTITLE9=I Was Too Hard On Myself
TTITLE10=Intro
TTITLE11=Please Come Soon
TTITLE12=If You Put Your Luck On One Card
TTITLE13=I'm on My Way
EXTD=
EXTT0=
EXTT1=
EXTT2=
EXTT3=
EXTT4=
EXTT5=
EXTT6=
EXTT7=
EXTT8=
EXTT9=
EXTT10=
EXTT11=
EXTT12=
EXTT13=
PLAYORDER=
